<svg enable-background="new 0 0 260 260" height="260" viewBox="0 0 260 260" width="260" xmlns="http://www.w3.org/2000/svg"><g fill="#83033e"><path d="m145.609 87.525v-.039c0-1.545-1.246-2.812-2.79-2.812-1.575 0-2.832 1.267-2.832 2.812v.039 10.778h-7.089v-2.463h2.134v-.029c.079 0 .148.029.204.029 1.561 0 2.817-1.275 2.817-2.842v-.158-7.707c-.031-1.495-1.188-2.682-2.667-2.752v-.059h-10.649c-1.55 0-2.795 1.266-2.795 2.811v.12 7.607.139c0 1.476 1.112 2.683 2.542 2.813v.029h2.746v2.463h-7.197v-10.779h-.03v-.039c0-1.545-1.246-2.812-2.807-2.812-1.55 0-2.837 1.267-2.837 2.812v.039 11.326h.04c-.02.11-.04.22-.04.349 0 2.632 2.144 4.756 4.776 4.756h8.094v2.094h-2.98c-1.561.03-2.826 1.276-2.826 2.822 0 1.515 1.266 2.781 2.826 2.811h4.083c2.492-.12 4.471-2.123 4.566-4.615v-3.111h8.176c2.441-.109 4.396-2.053 4.535-4.476h.03v-11.956zm-18.009.47h4.805v2.184h-4.805z"/><path d="m152.56 27.617c-.07-2.552-2.174-4.625-4.757-4.625h-.049-15.07v-3.052h-.009c-.114-1.426-1.315-2.602-2.826-2.602-1.482 0-2.687 1.176-2.803 2.602h-.02v3.052h-14.81-.02-.145c-2.562.089-4.616 2.173-4.616 4.755 0 .2.02.389.029.608v9.959.081c0 1.574 1.268 2.811 2.832 2.811 1.552 0 2.817-1.236 2.817-2.811v-.041l.02-.04v-9.681h7.159v8.126.03c0 1.564 1.266 2.831 2.826 2.831 1.55 0 2.815-1.267 2.815-2.831v-.03-8.126h8.126v8.126h.021v.03c0 1.564 1.265 2.831 2.822 2.831 1.559 0 2.826-1.267 2.826-2.831v-.03-8.126h7.198v9.681.081c0 1.574 1.255 2.811 2.81 2.811 1.558 0 2.823-1.236 2.823-2.811v-.041-.04-10.697z"/><path d="m135.525 54.576-1.63-1.586 2.692-2.402-.03-.02c.582-.448.982-1.156 1.062-1.965.145-1.555-1.007-2.9-2.562-3.06-.908-.091-1.726.278-2.299.907l-2.926 2.572-1.614-1.566c-.07-.089-.184-.189-.245-.259l-.059-.061c-.42-.349-.973-.558-1.546-.607-1.55-.14-2.907 1.018-3.06 2.563-.05.777.204 1.515.683 2.073l-.04.029 1.675 1.615-2.26 2.005c-.713.438-1.221 1.227-1.305 2.124-.12 1.544 1.031 2.931 2.572 3.04.836.07 1.614-.199 2.174-.748l.044.05 2.815-2.521 1.92 1.884.02-.01c.429.379.992.607 1.595.678 1.561.139 2.926-1.018 3.062-2.562.071-.808-.224-1.585-.738-2.173"/><path d="m135.525 68.185v-.02l-1.63-1.566 2.692-2.402-.03-.039c.582-.448.982-1.137 1.062-1.955.145-1.555-1.007-2.91-2.562-3.04-.908-.09-1.726.249-2.299.878l-2.926 2.592-1.614-1.586c-.07-.099-.184-.189-.245-.259l-.059-.05c-.42-.329-.973-.568-1.546-.599-1.55-.159-2.907.998-3.06 2.543-.05.777.204 1.515.683 2.083l-.04.01 1.675 1.615-2.26 2.015c-.713.459-1.221 1.236-1.305 2.134-.12 1.555 1.031 2.931 2.572 3.05.836.07 1.614-.209 2.174-.748l.044.041 2.815-2.513 1.92 1.864.02-.01c.429.368.992.617 1.595.678 1.561.129 2.926-.997 3.062-2.562.071-.809-.224-1.586-.738-2.154"/><path d="m116.134 63.698v-.021h.05c1.585 0 2.846-1.245 2.846-2.791 0-1.564-1.26-2.831-2.846-2.831h-.05v-.021h-4.402v-3.03h4.512v-.021c1.555-.02 2.787-1.267 2.787-2.791 0-1.546-1.231-2.812-2.787-2.832v-.02h-4.512v-.399h-.02c-.028-1.545-1.276-2.751-2.815-2.751-1.53 0-2.767 1.206-2.817 2.751h-.025v18.524.209c0 2.633 2.148 4.786 4.791 4.786.273 0 .529-.021.769-.061h4.59c1.566-.02 2.826-1.296 2.826-2.841 0-1.546-1.26-2.802-2.826-2.821h-4.472v-3.041h4.401z"/><path d="m143.875 63.698v-.021h-.061c-1.555 0-2.831-1.245-2.831-2.791 0-1.564 1.276-2.831 2.831-2.831h.061v-.021h4.406v-3.03h-4.525v-.021c-1.536-.02-2.772-1.267-2.772-2.791 0-1.546 1.236-2.812 2.772-2.832v-.02h4.525v-.399h.021c.011-1.545 1.276-2.751 2.812-2.751 1.524 0 2.772 1.206 2.801 2.751h.021v18.524.209c0 2.633-2.123 4.786-4.766 4.786-.27 0-.529-.021-.788-.061h-4.567c-1.555-.02-2.831-1.296-2.831-2.841 0-1.546 1.276-2.802 2.831-2.821h4.467v-3.041h-4.407z"/><path d="m153.785 78.973c0-2.583-2.045-4.707-4.606-4.756v-.04h-38.225v.02c-2.621.021-4.725 2.144-4.725 4.776h-.02v17.457h.02c.02 1.555 1.276 2.801 2.815 2.801 1.561 0 2.817-1.267 2.817-2.821v-.05-16.531h36.261v16.47.021c0 1.556 1.296 2.822 2.842 2.822 1.564 0 2.82-1.267 2.82-2.822v-.021-17.326z"/><path d="m187.034 14.746-40.826 147.319c.12.04.26.099.368.159l52.402-140.718c-3.848-2.453-7.845-4.706-11.944-6.76"/><path d="m221.998 40.318-66.02 126.871c.12.1.229.18.349.259l74.425-117.149c-2.751-3.48-5.663-6.82-8.754-9.981"/><path d="m245.966 74.874-82.23 99.793c.089.14.2.259.298.399l86.759-88.547c-1.437-3.968-3.032-7.856-4.827-11.645"/><path d="m257.213 113.776-88.553 70.481c.061.18.119.359.16.539l89.31-59.266c-.131-3.976-.42-7.875-.917-11.754"/><path d="m256.335 151.457-86.639 43.189c-.02.22-.02.459-.039.678l84.424-33.398c.898-3.43 1.655-6.92 2.254-10.469"/><path d="m246.146 183.919-79.162 20.479c-.119.259-.248.518-.379.777l75.135-12.701c1.574-2.792 3.03-5.644 4.406-8.555"/><path d="m230.414 209.263-68.872 3.031c-.199.199-.409.418-.6.637l64.077 2.713c1.865-2.054 3.66-4.168 5.395-6.381"/><path d="m155.44 217.537c-.259.159-.498.319-.758.479l52.921 13.618c1.884-1.436 3.707-2.932 5.521-4.466z"/><path d="m149.678 220.847c-.279.12-.558.24-.817.359l42.342 21.057c1.765-.978 3.498-1.974 5.204-3.031z"/><path d="m144.742 222.802c-.189.079-.418.12-.627.199l32.71 25.941c1.546-.579 3.061-1.236 4.587-1.895z"/><path d="m140.626 223.958c-.189.039-.359.1-.56.14l24.078 29.092c1.346-.379 2.701-.797 4.038-1.217z"/><path d="m137.195 224.597c-.164.039-.293.059-.479.099l16.231 31.047c1.206-.22 2.424-.459 3.65-.718z"/><path d="m134.339 224.976c-.145 0-.29.02-.463.039l8.982 32.122c1.137-.119 2.254-.237 3.369-.379z"/><path d="m131.702 225.135c-.145 0-.273.02-.398.02l2.023 32.581c1.092-.02 2.154-.08 3.225-.139z"/><path d="m123.183 257.576c1.082.06 2.168.12 3.241.159l2.038-32.581c-.129 0-.273-.02-.427-.02z"/><path d="m113.532 256.719c1.117.14 2.238.278 3.37.398l8.954-32.122c-.139-.02-.295-.04-.449-.04z"/><path d="m103.203 254.965c1.202.258 2.419.497 3.624.717l16.191-30.986c-.145-.04-.309-.06-.448-.099z"/><path d="m91.629 251.934c1.335.418 2.696.816 4.052 1.195l23.993-29.051c-.184-.021-.37-.081-.554-.12z"/><path d="m78.464 246.989c1.5.657 3.001 1.296 4.54 1.893l32.618-25.881c-.206-.079-.429-.12-.604-.199z"/><path d="m63.499 239.172c1.694 1.057 3.419 2.054 5.175 2.99l42.216-20.956c-.279-.119-.523-.239-.797-.359z"/><path d="m46.844 227.129c1.8 1.535 3.629 3.03 5.493 4.446l52.731-13.559c-.254-.16-.529-.32-.763-.479z"/><path d="m35 215.644 63.828-2.713c-.215-.219-.4-.438-.624-.637l-68.608-3.031c1.736 2.193 3.514 4.306 5.404 6.381"/><path d="m18.31 192.533 74.824 12.642c-.134-.26-.254-.519-.39-.777l-78.825-20.378c1.351 2.89 2.821 5.742 4.391 8.513"/><path d="m5.968 162.025 84.134 33.299c-.029-.219-.05-.438-.07-.678l-86.327-43.029c.623 3.509 1.345 6.998 2.263 10.408"/><path d="m1.87 125.681 89.06 59.116c.044-.18.114-.359.165-.519l-88.327-70.301c-.479 3.848-.778 7.766-.898 11.704"/><path d="m9.153 86.748 86.573 88.318c.084-.141.195-.26.298-.399l-82.07-99.593c-1.78 3.798-3.39 7.676-4.801 11.674"/><path d="m29.119 50.479 74.289 116.97c.125-.059.255-.159.379-.238l-65.951-126.732c-3.076 3.179-5.972 6.52-8.717 10"/><path d="m113.169 162.225c.134-.061.234-.119.379-.159l-40.817-147.211c-4.083 2.034-8.065 4.298-11.905 6.779z"/><path d="m143.078 108.023v.011h-4.473l-3.124 51.479c.125 0 .243.04.398.04l7.636-51.568c-.158.019-.317.019-.437.038"/><path d="m108.407 18.445v-.01h.181.02 7.068l-.992-16.142c-4.646.568-9.226 1.365-13.732 2.393l2.492 16.8c.905-1.735 2.775-2.971 4.963-3.041"/><path d="m117.012 113.119 6.873 46.434c.12 0 .275-.02.398-.04l-2.676-43.742c-1.899-.139-3.574-1.157-4.595-2.652"/><path d="m150.495 18.615h.069c2.683 0 4.916 1.734 5.554 4.077l2.692-18.055c-4.507-1.037-9.094-1.825-13.739-2.373l-1.007 16.351z"/><path d="m139.269 176.979c.101-.558.159-1.116.159-1.675 0-5.224-4.211-9.45-9.431-9.45-5.195 0-9.431 4.227-9.431 9.45 0 .839.12 1.675.343 2.452l.095.519 8.993 29.87 9.217-30.567h-.06c.06-.159.095-.379.115-.599"/><path d="m111.188 193.729c-.388-.339-.806-.658-1.286-.938-.563-.339-1.137-.598-1.675-.777-1.315-.499-2.787-.638-4.277-.379-4.432.758-7.392 5.005-6.605 9.431.633 3.67 3.645 6.321 7.198 6.681h.07c.459.04.917.079 1.376.02l23.115.16z"/><path d="m148.819 193.729c.379-.339.798-.658 1.276-.938.56-.339 1.157-.598 1.695-.777 1.317-.499 2.781-.638 4.269-.379 4.435.758 7.386 5.005 6.608 9.431-.628 3.67-3.659 6.321-7.198 6.681h-.09c-.438.06-.897.079-1.365.02l-23.104.16z"/></g></svg>