<?xml version="1.0" encoding="UTF-8"?>
<svg xmlns="http://www.w3.org/2000/svg" viewBox="0 0 30 30" role="img" aria-label="微光医疗">
  <path
    fill="#20BFD0"
    d="M1.42616067,8.37724565 C1.9032043,7.40087462 2.48182502,6.4839489 3.14967952,5.6401613 L8.67338596,9.77983885 C9.17149548,10.1528038 10.0524775,9.51592276 9.75633722,8.85675794 L5.63028667,3.15833629 C6.47779371,2.48676234 7.39962383,1.90317139 8.38096509,1.42365909 L11.4686977,7.46654094 C12.8936076,10.5332077 10.2817007,12.7387075 7.35999363,11.3918731 L1.42616067,8.37724565 Z M0.717425174,19.9153292 C0.370496318,18.9079847 0.128863991,17.8523203 0.00125078714,16.7606794 L6.8358809,15.7818397 C7.45169608,15.6938567 7.62390972,14.6208459 6.94861632,14.3631179 L-1.42108547e-14,13.2529127 C0.126395333,12.1551166 0.370496318,11.0932641 0.719893833,10.0796986 L7.17662165,12.1699943 C10.3523044,13.3309881 10.0648537,16.7371449 7.04775766,17.8510695 L0.717425174,19.9153292 Z M8.37727856,28.5738373 C7.40087462,28.0967937 6.48398181,27.518173 5.64019422,26.8503185 L9.77987177,21.326612 C10.1540546,20.8272846 9.51595568,19.9475534 8.85679086,20.2424429 L3.15833629,24.370995 C2.48554446,23.5222372 1.9032043,22.6003742 1.42369201,21.6190329 L7.46654094,18.5313003 C10.5344585,17.1051725 12.7387404,19.7182973 11.3931239,22.6387865 L8.37727856,28.5738373 Z M19.9165799,29.2826057 C18.9092355,29.6295346 17.8535711,29.871134 16.7619631,29.9987472 L15.7830905,23.16415 C15.6951075,22.5470841 14.6208788,22.3760883 14.3643687,23.0513817 L13.2529456,29.999998 C12.1551495,29.8736356 11.0932641,29.6295346 10.0797315,29.281322 L12.1712451,22.8233764 C13.331021,19.6464757 16.7371778,19.9351443 17.8510695,22.9522403 L19.9165799,29.2826057 Z M28.575121,21.6215345 C28.0968266,22.5979055 27.5182059,23.5147983 26.8503514,24.3598367 L21.326645,20.2188754 C20.8285354,19.8459434 19.9475534,20.4828244 20.2436937,21.1419893 L24.370995,26.8416288 C23.5234551,27.5132357 22.6003742,28.0967937 21.6190658,28.5763389 L18.5313003,22.5322392 C17.1063904,19.4655724 19.7183302,17.2600397 22.6400373,18.6069071 L28.575121,21.6215345 Z M29.2813879,10.0834181 C29.6283167,11.0907625 29.8711669,12.1476777 29.9987801,13.2380678 L23.1654008,14.2169075 C22.5483348,14.3048905 22.3761212,15.3779013 23.0514146,15.6356293 L30.0000309,16.7470524 C29.8736356,17.8436307 29.6295346,18.905516 29.2813879,19.9190486 L22.8234093,17.8287529 C19.6476936,16.6677591 19.9351772,13.2616024 22.953524,12.1476777 L29.2813879,10.0834181 Z M21.6215345,1.42612775 C22.5979055,1.90317139 23.5147983,2.48182502 24.3598367,3.14967952 L20.2201591,8.67213517 C19.8459434,9.17146257 20.4840752,10.0511938 21.1432401,9.7563043 L26.8416946,5.62900297 C27.5132357,6.47651 28.0956087,7.39837304 28.575121,8.38096509 L22.5334571,11.4674469 C19.4668232,12.8936076 17.2612905,10.280417 18.6069071,7.35996071 L21.6215345,1.42612775 Z M16.7470853,0 C17.8448814,0.126362417 18.9067668,0.370463403 19.9190815,0.719860917 L17.8300037,7.17537086 C16.6690099,10.3523044 13.2628531,10.063603 12.1489614,7.04650687 L10.0846688,0.718643045 C11.0920462,0.37171419 12.1477106,0.128863991 13.2393186,0.00121787169 L14.2169404,6.83463011 C14.3061413,7.45166316 15.3791521,7.62265893 15.6368801,6.94736553 L16.7470853,0 Z"
  />
</svg>
