<svg width="181" height="32" viewBox="0 0 181 32" fill="none" xmlns="http://www.w3.org/2000/svg">
<g id="Frame 45424494">
<g id="apple-badge">
<path fill-rule="evenodd" clip-rule="evenodd" d="M7.20404 0.542454C7.59358 0.07216 7.59447 0.0718857 7.70521 0.360313C7.8541 0.748297 7.73469 2.32185 7.49681 3.10024C7.39118 3.44582 7.11448 4.01144 6.88223 4.35735C6.29809 5.22695 6.35269 5.34503 6.98168 4.57189C7.26895 4.21898 7.58272 3.92726 7.67895 3.92323C7.7752 3.91934 8.01752 3.845 8.21755 3.7584C8.6288 3.58033 10.4211 3.65852 10.6256 3.86344C10.9051 4.14356 9.66944 5.01278 8.79191 5.15351C8.42847 5.21169 8.11409 5.17495 7.7337 5.02948C7.43627 4.91562 7.09416 4.85382 6.9733 4.89203C6.64466 4.99648 4.97226 7.63327 5.23402 7.6342C5.30604 7.6342 5.44004 7.45626 5.53182 7.23919C5.73429 6.75992 6.02981 6.48476 6.58555 6.25641C7.10401 6.04335 8.88272 5.86624 8.88465 6.02734C8.88465 6.26239 7.86742 7.28915 7.38451 7.54145C7.01693 7.73348 6.6509 7.8061 6.0056 7.81522C5.52245 7.82202 5.0764 7.87995 5.01445 7.94372C4.68903 8.2786 3.60967 11.5193 3.82271 11.5212C3.89327 11.5212 3.86931 11.6171 3.76908 11.734C3.4576 12.0972 2.91148 15.8942 3.1707 15.8942C3.25459 15.8938 3.30811 15.6476 3.30981 15.2567C3.31285 14.5215 3.59634 13.8188 4.13895 13.1995C4.54739 12.7334 5.82981 11.7006 5.90448 11.7776C5.92933 11.8037 5.9008 12.1352 5.84078 12.514C5.61595 13.9344 4.8302 15.1776 3.85959 15.6484C3.55755 15.7949 3.28008 16.0278 3.2316 16.1758C3.12564 16.4987 3.17345 18.3222 3.30535 18.9917L3.40089 19.4778L3.41821 19.0526C3.44476 18.4125 3.89155 17.4588 4.70157 16.3127L5.42901 15.2835L5.48991 15.8015C5.65516 17.2137 5.18367 18.7219 4.28198 19.6666C3.99851 19.9635 3.72407 20.3162 3.67242 20.45C3.61294 20.6047 3.69668 21.0918 3.90205 21.7858C4.22819 22.888 4.96221 24.6021 5.06417 24.5001C5.0942 24.4694 4.99788 24.2018 4.85019 23.905C4.46064 23.1217 4.50484 22.1933 4.99936 20.7533C5.55114 19.1471 5.55501 19.1423 5.81229 19.7208C5.97639 20.0899 6.02919 20.5304 6.03186 21.5534C6.03538 22.8384 6.01724 22.9357 5.64132 23.6659C5.15126 24.618 5.14891 24.9229 5.62624 25.6795C6.16202 26.5291 7.18483 27.7987 7.33311 27.7987C7.40129 27.7982 7.26697 27.5869 7.03419 27.3288C6.39331 26.618 6.29124 26.1666 6.37938 24.4252C6.42109 23.5993 6.48914 22.869 6.53024 22.8021C6.65754 22.5959 7.0186 23.0305 7.38171 23.8268C7.69197 24.5073 7.72323 24.6965 7.70577 25.7946C7.6951 26.4627 7.66939 27.2795 7.64878 27.6099C7.61157 28.208 7.6143 28.2128 8.29577 28.7642C9.10821 29.4216 10.4786 30.2536 10.5748 30.1481C10.6121 30.107 10.5766 30.0499 10.4965 30.0213C10.076 29.8702 9.51948 29.3714 9.27352 28.9251C8.90724 28.2603 8.39289 25.7337 8.62373 25.7337C8.90497 25.7343 9.90485 26.8112 10.2451 27.4802C10.5523 28.0844 10.6335 28.4124 10.6787 29.2301C10.7435 30.4078 10.692 30.3579 12.3397 30.837C12.9399 31.0114 13.4149 31.2058 13.3951 31.2683C13.3481 31.417 12.8776 31.3502 11.9771 31.0672C10.9485 30.7441 10.6474 30.7664 10.349 31.1862C9.89208 31.8289 8.60166 32.1591 7.46552 31.9242C6.77783 31.782 5.85363 31.3902 5.85363 31.2409C5.85412 31.1058 6.26454 30.8286 7.00514 30.4643C7.98611 29.9818 9.09405 29.9627 9.97973 30.4124C10.7951 30.8263 10.7427 30.7029 9.8976 30.2185C9.52137 30.0027 8.8687 29.5611 8.44718 29.2374C8.02567 28.9137 7.59996 28.6491 7.50128 28.6491C7.40253 28.6493 7.12634 28.7647 6.88725 28.9061C6.3177 29.2428 5.32691 29.1816 4.39316 28.7519C3.66352 28.416 2.82262 27.7446 2.82262 27.4981C2.82262 27.2885 3.83831 27.0178 4.58759 27.0277C5.45675 27.039 6.02037 27.2586 6.78836 27.8853L7.45714 28.4312L6.79395 27.6479C6.42909 27.217 5.90703 26.5348 5.63406 26.1321C5.06973 25.2994 4.93205 25.2159 4.38199 25.3739C3.34263 25.6726 1.81964 24.5813 1.12972 23.0435L0.892264 22.5144L1.33644 22.4753C2.44084 22.3779 3.64873 23.1097 4.42165 24.3447C4.69066 24.7746 4.9329 25.1264 4.95969 25.1264C4.98547 25.1243 4.84996 24.8109 4.65799 24.428C4.46521 24.0438 4.10367 23.1825 3.85512 22.5144C3.26643 20.933 3.23183 20.8746 2.8729 20.8746C2.4264 20.8746 1.95561 20.5932 1.4331 20.0136C0.901258 19.4239 0.200974 17.9865 0.0815721 17.239L0 16.7272L0.462056 16.9206C1.6042 17.3986 2.65127 18.6579 3.01761 19.994C3.13196 20.4114 3.24351 20.7356 3.26512 20.7148C3.28658 20.6933 3.22293 20.251 3.12376 19.732C3.02471 19.2131 2.94387 18.4361 2.94386 18.0056C2.94386 17.1556 2.69387 16.3803 2.42034 16.3803C1.8673 16.38 1.229 15.4077 0.865446 14.0113C0.636461 13.132 0.560732 11.643 0.744764 11.643C0.976276 11.6433 2.01045 12.9083 2.31195 13.5599C2.55359 14.0824 2.6508 14.5255 2.70305 15.3478C2.78549 16.6445 2.89024 16.3835 3.01984 14.5583C3.15964 12.5885 3.15303 12.5354 2.72819 12.0955C2.09796 11.4432 1.9729 10.9774 1.97896 9.3081C1.98249 8.36596 2.04282 7.68223 2.14211 7.45206L2.2991 7.08778L2.68685 7.6951C3.41037 8.82841 3.57876 10.1302 3.25227 12.0681C3.19945 12.3818 3.20948 12.3733 3.32546 12.0072C3.39942 11.7734 3.6443 11.017 3.86909 10.3266C4.0936 9.63674 4.27733 8.96993 4.27751 8.84437C4.27751 8.71939 4.14081 8.41553 3.97412 8.16944C3.67441 7.7268 3.61593 7.37412 3.66236 6.29776C3.70525 5.3044 4.27621 3.38239 4.52837 3.38239C4.57957 3.38306 4.72088 3.64262 4.84292 3.95954C5.16651 4.79975 5.14431 6.74397 4.80158 7.5733C4.34172 8.68596 4.36784 8.67447 5.07088 7.45206C6.39213 5.15449 6.40892 5.11367 6.17713 4.72051C6.04049 4.48887 5.97488 4.1035 5.97488 3.53213C5.97488 2.80976 6.03611 2.56484 6.39447 1.8504C6.62519 1.39051 6.98932 0.801676 7.20404 0.542454ZM3.55006 19.7208C3.45707 19.5039 3.44484 19.5128 3.4372 19.8046C3.43259 19.9844 3.48338 20.1651 3.55006 20.2064C3.61673 20.2476 3.66697 20.21 3.66236 20.1225C3.65759 20.0351 3.60735 19.8544 3.55006 19.7208ZM7.62699 3.99027C7.55734 3.99035 7.06604 4.55566 7.06604 4.63558C7.06608 4.83301 7.26365 4.68927 7.45435 4.35343C7.56787 4.15349 7.64553 3.99027 7.62699 3.99027Z" fill="#0C0A09"/>
<path d="M68.62 0.459206C68.821 0.652048 69.1862 1.21682 69.4318 1.71407C69.8287 2.51803 69.8781 2.71977 69.8754 3.53604C69.8737 4.05763 69.7985 4.61987 69.7011 4.8384C69.535 5.21138 69.5482 5.25294 70.1453 6.23518C70.4837 6.79201 70.9041 7.53493 71.0795 7.88562C71.2546 8.23623 71.4181 8.52311 71.4426 8.52311C71.4664 8.52183 71.3516 8.1883 71.1873 7.78058C70.6843 6.53272 70.6882 4.81049 71.1968 3.60476L71.3504 3.2416L71.5532 3.55168C71.8813 4.05333 72.2664 5.71705 72.2846 6.7112C72.2995 7.52765 72.2636 7.68987 71.9689 8.13592C71.5698 8.74023 71.5632 8.8761 71.8901 9.73775C72.0296 10.1052 72.2757 10.8706 72.4371 11.4385C72.5985 12.0063 72.6885 12.2251 72.6377 11.9246C72.587 11.6239 72.5464 10.831 72.5478 10.1629C72.5498 9.06834 72.585 8.87932 72.9003 8.25157C73.0927 7.86837 73.3475 7.46692 73.4663 7.35931C73.6689 7.17565 73.6909 7.19566 73.8294 7.69118C74.0192 8.3701 74.0148 10.3688 73.8222 11.0714C73.7291 11.411 73.5092 11.7698 73.2361 12.0279C72.7423 12.4946 72.7531 12.4031 72.9104 14.8137C72.9638 15.6346 73.0473 16.3307 73.0958 16.3607C73.1443 16.3899 73.2074 15.91 73.2366 15.2936C73.2821 14.328 73.3442 14.0643 73.6819 13.4023C73.8979 12.9793 74.331 12.3783 74.644 12.0665L75.2128 11.4994L75.2491 12.3246C75.3082 13.682 74.7109 15.5489 74.0356 16.1182C73.8393 16.2836 73.603 16.4188 73.5104 16.4188C73.2216 16.4189 73.115 16.8042 72.9707 18.3671C72.8938 19.1997 72.782 20.0676 72.7226 20.2957C72.5647 20.9025 72.7803 20.5847 72.9629 19.9415C73.3137 18.7056 74.0509 17.7322 75.086 17.1373C75.4224 16.944 75.7386 16.7851 75.7888 16.7842C75.9673 16.782 75.8749 17.3897 75.5726 18.2067C75.0506 19.618 73.9773 20.7919 73.2093 20.7919C72.769 20.7919 72.706 20.8856 72.1494 22.3708C71.8864 23.0722 71.5234 23.9387 71.3426 24.2961C70.909 25.1531 71.0202 25.2352 71.4884 24.404C72.1277 23.269 73.1524 22.5589 74.3552 22.4172C75.1008 22.3294 75.1252 22.3582 74.8552 23.0055C74.5713 23.6865 73.7462 24.6402 73.1238 25.0068C72.6395 25.2919 72.4081 25.3471 71.6991 25.3471H70.8521L70.2922 26.1628C69.9845 26.6115 69.4653 27.2943 69.1385 27.6803L68.5446 28.382L69.1536 27.8713C69.4884 27.5904 69.9996 27.2762 70.29 27.1735C71.1264 26.8778 72.4903 26.962 73.0891 27.3461C73.3711 27.5272 72.7044 28.1398 71.665 28.6546C70.5546 29.2046 69.5683 29.2717 68.9826 28.8379C68.7806 28.6884 68.5568 28.5664 68.4859 28.5664C68.4142 28.5669 67.9622 28.8676 67.4808 29.2352C66.9991 29.603 66.3218 30.0525 65.9756 30.2341C65.6297 30.4156 65.3653 30.5831 65.3878 30.6062C65.4108 30.6292 65.6567 30.5319 65.9343 30.39C66.5911 30.0543 67.4756 29.9551 68.2043 30.1358C68.8995 30.3081 70.0598 30.9799 70.0604 31.2102C70.0604 31.6397 67.9881 32.1463 66.9925 31.96C66.2675 31.8243 66.0423 31.7015 65.6409 31.2236C65.2532 30.7619 64.9947 30.7453 63.8162 31.1063C63.3497 31.2492 62.8317 31.3486 62.6647 31.3275L62.3613 31.2884L62.6647 31.1599C62.8317 31.0889 63.4588 30.8727 64.0587 30.6794L65.1498 30.3274L65.2219 29.2743C65.276 28.4835 65.3745 28.056 65.6175 27.5585C66.0511 26.6705 67.3931 25.4093 67.3931 25.8896C67.393 25.9544 67.2855 26.5611 67.1545 27.2383C66.8606 28.7571 66.472 29.4845 65.8041 29.7654C65.3778 29.9446 65.1809 30.1452 65.4309 30.1453C65.597 30.1453 66.9898 29.2645 67.6395 28.7485C68.3471 28.1864 68.4492 27.9104 68.2585 27.083C68.0651 26.243 68.0863 25.204 68.3127 24.428C68.5475 23.6233 69.1994 22.5536 69.3581 22.7122C69.4196 22.7739 69.5019 23.5317 69.5402 24.3961C69.6213 26.222 69.5283 26.6293 68.8843 27.2746C68.642 27.5173 68.4764 27.7484 68.5161 27.7881C68.5561 27.8275 68.757 27.6773 68.963 27.454C69.4138 26.9652 70.7878 24.9557 70.7878 24.785C70.7877 24.7182 70.5918 24.2614 70.3526 23.7698C69.8028 22.6402 69.6775 21.4044 69.9894 20.1857C70.1005 19.752 70.237 19.3515 70.2928 19.2957C70.4055 19.1827 71.0921 20.9898 71.2929 21.9277C71.4525 22.6738 71.3486 23.4976 71.0247 24.0475C70.889 24.2779 70.807 24.4958 70.8426 24.5313C70.9531 24.641 71.7201 22.85 72.0466 21.7193C72.3988 20.4997 72.384 20.4287 71.6281 19.6381C70.9173 18.8949 70.5091 17.8846 70.4475 16.7183C70.3668 15.1837 70.3957 15.1616 71.142 16.1853C72.049 17.4296 72.3819 18.1163 72.4746 18.9364L72.5539 19.6381L72.6422 19.0342C72.8387 17.6903 72.8805 16.4628 72.7394 16.1987C72.6615 16.0531 72.3885 15.8263 72.1321 15.6953C71.0946 15.1649 70.2407 13.7407 70.0905 12.2888L70.0212 11.6206L70.8593 12.3497C71.32 12.7505 71.7953 13.1877 71.9158 13.3213C72.321 13.7705 72.601 14.5216 72.6036 15.1668C72.6051 15.5135 72.661 15.8311 72.7277 15.8724C72.8751 15.9636 72.8748 15.9202 72.7243 14.4751C72.4658 11.9923 72.2344 11.4385 71.4555 11.4385C71.0005 11.4385 70.1254 10.9057 69.6447 10.3356C69.2711 9.89267 68.6735 8.65782 68.7803 8.54993C68.8685 8.46162 70.3804 9.10845 70.9392 9.47348C71.4753 9.82367 71.8261 10.3508 71.9432 10.9842C71.9898 11.2355 72.0851 11.4769 72.1555 11.5206C72.2301 11.5668 72.2582 11.5278 72.2226 11.4279C72.1887 11.3329 72.0119 10.7914 71.8298 10.2238C71.6476 9.65595 71.3521 8.89056 71.1733 8.52311L70.8481 7.85489L69.9995 7.8493C69.3503 7.8448 69.0117 7.77338 68.5591 7.54648C68.019 7.27532 67.0318 6.30654 67.0299 6.04578C67.0306 5.98582 67.4611 5.96699 67.9976 6.00387C69.4146 6.10118 70.2903 6.58924 70.4403 7.36434C70.4644 7.48955 70.557 7.61642 70.6453 7.64593C70.9825 7.75796 69.3756 5.05666 69.0245 4.92109C68.9217 4.88161 68.5484 4.94 68.1954 5.05127C67.4324 5.29174 66.843 5.19885 66.0047 4.70654C65.4977 4.40893 65.1138 3.96351 65.2482 3.8288C65.281 3.79732 65.7916 3.74043 66.384 3.70198C67.6066 3.62253 68.0388 3.76368 68.5049 4.39534C68.652 4.59432 68.8257 4.75717 68.8915 4.75738C68.9574 4.75738 68.9065 4.63118 68.7781 4.47691C68.6498 4.32264 68.7489 4.41865 68.9988 4.68978C69.5397 5.27673 69.5955 5.1358 69.0882 4.46406C68.8907 4.2025 68.6173 3.6887 68.4803 3.32205C68.2101 2.5984 68.0357 0.981259 68.1702 0.443562L68.2546 0.108334L68.62 0.459206Z" fill="#0C0A09"/>
<path d="M36.7588 17.2301C38.0404 17.2301 38.9614 17.999 39.1457 19.1845H38.1925C38.0083 18.4796 37.4795 18.0391 36.7186 18.0391C35.6534 18.0392 34.9967 18.8804 34.9967 20.0818C34.9967 21.275 35.6375 22.1238 36.6946 22.1239C37.4715 22.1239 38.0085 21.6914 38.1847 20.9785H39.1378C38.9616 22.1639 38.0084 22.9328 36.703 22.9329C35.0691 22.9329 34.0514 21.8037 34.0513 20.0818C34.0513 18.3757 35.1008 17.2301 36.7588 17.2301Z" fill="#0C0A09"/>
<path fill-rule="evenodd" clip-rule="evenodd" d="M46.3179 18.7358C47.5674 18.7358 48.4086 19.5848 48.4086 20.8343C48.4086 22.0919 47.5674 22.9329 46.3179 22.9329C45.0684 22.9329 44.2272 22.0919 44.2272 20.8343C44.2272 19.5849 45.0684 18.7358 46.3179 18.7358ZM46.3179 19.4728C45.589 19.4728 45.1166 20.0414 45.1166 20.8343C45.1166 21.6273 45.589 22.1959 46.3179 22.1959C47.0467 22.1959 47.5275 21.6273 47.5275 20.8343C47.5275 20.0414 47.0467 19.4728 46.3179 19.4728Z" fill="#0C0A09"/>
<path d="M52.7235 18.7358C53.7807 18.7359 54.4376 19.3209 54.6058 20.2499H53.7007C53.5886 19.7694 53.2439 19.4728 52.7073 19.4728C52.0105 19.4728 51.5542 20.0333 51.5541 20.8422C51.5541 21.6431 52.0105 22.1959 52.7073 22.1959C53.2358 22.1959 53.5881 21.8917 53.6923 21.4193H54.6058C54.4455 22.3483 53.7486 22.9328 52.6995 22.9329C51.458 22.9329 50.6646 22.1237 50.6646 20.8422C50.6647 19.5767 51.4821 18.7358 52.7235 18.7358Z" fill="#0C0A09"/>
<path fill-rule="evenodd" clip-rule="evenodd" d="M57.134 18.7358C58.3194 18.7358 59.1124 19.4887 59.1364 20.6902C59.1364 20.7943 59.1284 20.9066 59.1124 21.0187H56.0205V21.0746C56.0445 21.7714 56.4851 22.2277 57.1658 22.2278C57.6945 22.2278 58.0793 21.9636 58.1994 21.507H59.0643C58.9202 22.316 58.2311 22.9329 57.2139 22.9329C55.9244 22.9328 55.1153 22.0996 55.1153 20.8422C55.1154 19.5768 55.9246 18.7358 57.134 18.7358ZM57.1418 19.4325C56.5893 19.4326 56.117 19.8011 56.0529 20.3857H58.2391C58.167 19.7771 57.7425 19.4325 57.1418 19.4325Z" fill="#0C0A09"/>
<path d="M21.2741 11.5212C21.9071 11.5212 23.0932 10.6595 24.3431 10.7876C24.864 10.8076 26.3348 11 27.2764 12.3782C27.2002 12.4263 25.5254 13.4003 25.5455 15.4277L25.5494 15.6461C25.6943 17.8914 27.6593 18.6532 27.6926 18.6649C27.6761 18.7227 27.3556 19.8155 26.583 20.9444C25.9139 21.922 25.2206 22.8916 24.1308 22.9116C23.0572 22.9316 22.7124 22.2747 21.4864 22.2747C20.2606 22.2748 19.8757 22.8917 18.8621 22.9318C17.8086 22.9717 17.0071 21.8783 16.3301 20.9047C14.9558 18.9135 13.9024 15.2834 15.3126 12.8313C16.0138 11.6134 17.2676 10.844 18.6297 10.8239C19.6633 10.8039 20.6411 11.521 21.2741 11.5212Z" fill="#0C0A09"/>
<path d="M40.6765 19.3767C40.9328 19.0243 41.3253 18.7358 41.966 18.7358C42.8791 18.7358 43.6242 19.2324 43.6243 20.6019V22.8848H42.7589V20.674C42.7588 19.8972 42.4146 19.4806 41.7738 19.4806C41.0931 19.4806 40.6766 19.9854 40.6765 20.8103V22.8848H39.8116V17.2781H40.6765V19.3767Z" fill="#0C0A09"/>
<path d="M49.969 22.8848H49.1042V18.7839H49.969V22.8848Z" fill="#0C0A09"/>
<path d="M49.5444 17.1658C49.8408 17.1658 50.073 17.3822 50.073 17.6866C50.0729 17.9909 49.8408 18.2073 49.5444 18.2073C49.2482 18.2072 49.0159 17.9908 49.0159 17.6866C49.0159 17.3822 49.2481 17.1659 49.5444 17.1658Z" fill="#0C0A09"/>
<path fill-rule="evenodd" clip-rule="evenodd" d="M42.5018 14.8751H41.7487L41.6448 14.2583C41.3805 14.6187 40.9559 14.9231 40.3072 14.9232C39.1939 14.9232 38.3685 14.1382 38.3685 12.8246C38.3685 11.5592 39.1939 10.7261 40.3072 10.7261C40.9318 10.7262 41.3721 10.9826 41.6364 11.3429V9.26843H42.5018V14.8751ZM40.4514 11.4631C39.7305 11.4631 39.258 12.0237 39.258 12.8246C39.258 13.6336 39.7305 14.1946 40.4514 14.1946C41.1721 14.1945 41.6447 13.6337 41.6448 12.8408C41.6448 12.0239 41.1722 11.4631 40.4514 11.4631Z" fill="#0C0A09"/>
<path fill-rule="evenodd" clip-rule="evenodd" d="M49.6813 10.7261C50.9308 10.7261 51.772 11.5751 51.772 12.8246C51.772 14.0822 50.9308 14.9232 49.6813 14.9232C48.4318 14.9231 47.5906 14.0821 47.5906 12.8246C47.5906 11.5751 48.4318 10.7261 49.6813 10.7261ZM49.6813 11.4631C48.9525 11.4631 48.4801 12.0317 48.4801 12.8246C48.4801 13.6176 48.9524 14.1862 49.6813 14.1862C50.4102 14.1862 50.8909 13.6176 50.8909 12.8246C50.8909 12.0317 50.4102 11.4631 49.6813 11.4631Z" fill="#0C0A09"/>
<path d="M58.7386 10.7261C59.7478 10.7261 60.4609 11.1908 60.517 12.0318H59.6677C59.6197 11.6554 59.2674 11.391 58.7548 11.391C58.2422 11.391 57.9056 11.5995 57.9056 11.9279C57.9057 12.3121 58.2985 12.36 58.8911 12.424C59.8281 12.5362 60.5889 12.7286 60.5891 13.6415C60.5891 14.4264 59.8441 14.9232 58.8509 14.9232C57.7536 14.9232 57.0005 14.4104 56.9764 13.5214H57.8257C57.8577 13.9459 58.2261 14.2505 58.8509 14.2505C59.3876 14.2505 59.7398 14.0419 59.7398 13.7136C59.7397 13.2733 59.3634 13.2411 58.7308 13.161C57.7937 13.0489 57.057 12.8488 57.0569 12C57.0569 11.2231 57.7535 10.7182 58.7386 10.7261Z" fill="#0C0A09"/>
<path d="M37.9282 10.0853H35.1889V11.639H37.4477V12.4324H35.1889V14.0583H38.0243V14.8751H34.2681V9.26843H37.9282V10.0853Z" fill="#0C0A09"/>
<path d="M44.2121 14.8751H43.3472V10.7742H44.2121V14.8751Z" fill="#0C0A09"/>
<path d="M46.2296 10.7742H47.2308V11.5351H46.2296V13.6739C46.2296 13.9941 46.3417 14.1141 46.6698 14.1141H47.2788V14.8751H46.4776C45.6928 14.8751 45.3563 14.5064 45.3563 13.7616V11.5351H44.6434V10.7742H45.3563V9.6288H46.2296V10.7742Z" fill="#0C0A09"/>
<path d="M53.3325 11.391C53.5407 11.0466 53.8693 10.7742 54.5421 10.7742H54.7343V11.5832H54.3499C53.581 11.5832 53.3325 12.184 53.3325 12.8168V14.8751H52.4676V10.7742H53.2364L53.3325 11.391Z" fill="#0C0A09"/>
<path d="M7.10459 8.48623C7.39329 8.48283 6.67534 9.87771 6.0531 10.5289C5.45816 11.1516 5.12551 11.3408 4.42109 11.458L3.89814 11.5452L3.98251 11.0775C4.16998 10.0416 4.68126 9.50404 6.04639 8.90694C6.57367 8.67627 7.05015 8.48708 7.10459 8.48623Z" fill="#0C0A09"/>
<path d="M55.8953 9.22038C56.3357 9.2205 56.6161 9.62915 56.6161 10.1417C56.616 10.9185 56.1194 11.3589 55.3265 11.367V10.9027C55.8311 10.8946 56.0311 10.5818 56.0311 10.3015C56.0311 10.2695 56.0312 10.2295 56.0233 10.1976C55.9512 10.2536 55.8551 10.2775 55.759 10.2775C55.4947 10.2775 55.2864 10.1095 55.2863 9.76513C55.2863 9.46076 55.5269 9.22038 55.8953 9.22038Z" fill="#0C0A09"/>
<path d="M24.3632 6.91346C24.4674 7.85492 24.091 8.79638 23.5302 9.47348C22.9733 10.1506 22.0515 10.6758 21.154 10.6077C21.0298 9.68615 21.4869 8.72853 22.0038 8.12754C22.5807 7.45051 23.558 6.94557 24.3632 6.91346Z" fill="#0C0A09"/>
<path d="M43.7874 9.15613C44.0838 9.15613 44.316 9.37248 44.316 9.67685C44.3159 9.98117 44.0838 10.1976 43.7874 10.1976C43.4912 10.1975 43.2589 9.98112 43.2589 9.67685C43.2589 9.37254 43.4912 9.15621 43.7874 9.15613Z" fill="#0C0A09"/>
<path d="M64.1196 0.0938073C64.1196 -0.045972 64.2356 -0.0336575 64.7409 0.158618C66.237 0.7283 66.9291 1.32076 67.0819 2.16216C67.1437 2.50262 67.3572 2.83149 67.8562 3.35669L68.5446 4.08134L67.7959 3.38686C67.3381 2.96231 66.9375 2.69117 66.7651 2.68959C66.3064 2.68507 65.5457 2.27712 65.0604 1.77497C64.6138 1.31265 64.1196 0.429314 64.1196 0.0938073Z" fill="#0C0A09"/>
<path d="M10.7826 0.290474C11.5847 -0.0347724 11.7942 -0.07295 11.7944 0.106658C11.7944 0.321299 11.2171 1.38563 10.8888 1.77665C10.5345 2.1984 9.68107 2.653 9.23999 2.65495C9.06112 2.65588 8.71847 2.86613 8.36952 3.18852C8.05281 3.48118 7.79364 3.67845 7.79349 3.62711C7.79349 3.5756 8.01171 3.3417 8.27845 3.1075C8.54514 2.8732 8.76475 2.57942 8.7662 2.45493C8.77141 2.02382 9.22384 1.22749 9.64785 0.903382C9.88209 0.724332 10.3928 0.44851 10.7826 0.290474Z" fill="#0C0A09"/>
</g>
<path id="google-badge" d="M91.0834 0.542456C91.473 0.0721602 91.4739 0.071886 91.5846 0.360315C91.7335 0.748299 91.6141 2.32185 91.3762 3.10025C91.2706 3.44583 90.9939 4.01145 90.7616 4.35736C90.1775 5.22697 90.2321 5.34505 90.8611 4.57191C91.1483 4.219 91.4621 3.92727 91.5583 3.92324C91.6546 3.91935 91.8969 3.84501 92.0969 3.75842C92.5082 3.58034 94.3005 3.65853 94.505 3.86346C94.7845 4.14357 93.5488 5.0128 92.6713 5.15353C92.3079 5.21171 91.9935 5.17497 91.6131 5.02949C91.3157 4.91564 90.9736 4.85384 90.8527 4.89205C90.5241 4.9965 88.8517 7.63329 89.1134 7.63422C89.1854 7.63422 89.3194 7.45628 89.4112 7.23921C89.6137 6.75994 89.9092 6.48478 90.4649 6.25643C90.9834 6.04337 92.7621 5.86626 92.764 6.02736C92.764 6.26241 91.7468 7.28918 91.2639 7.54148C90.8963 7.7335 90.5303 7.80613 89.885 7.81525C89.4018 7.82205 88.9558 7.87998 88.8938 7.94375C88.5684 8.27863 87.4891 11.5193 87.7021 11.5212C87.7727 11.5212 87.7487 11.6171 87.6485 11.7341C87.337 12.0973 86.7909 15.8943 87.0501 15.8943C87.134 15.8939 87.1875 15.6476 87.1892 15.2568C87.1922 14.5215 87.4757 13.8188 88.0183 13.1996C88.4268 12.7334 89.7092 11.7006 89.7839 11.7777C89.8087 11.8038 89.7802 12.1353 89.7202 12.514C89.4953 13.9344 88.7096 15.1776 87.739 15.6484C87.4369 15.7949 87.1595 16.0278 87.111 16.1759C87.005 16.4988 87.0528 18.3223 87.1847 18.9918L87.2803 19.4779L87.2976 19.0527C87.3242 18.4125 87.7709 17.4588 88.581 16.3127L89.3084 15.2836L89.3693 15.8015C89.5346 17.2138 89.0631 18.722 88.1614 19.6667C87.8779 19.9636 87.6035 20.3163 87.5518 20.45C87.4923 20.6048 87.5761 21.0919 87.7814 21.7859C88.1076 22.888 88.8416 24.6022 88.9436 24.5001C88.9736 24.4695 88.8773 24.2019 88.7296 23.9051C88.34 23.1217 88.3842 22.1934 88.8788 20.7534C89.4305 19.1472 89.4344 19.1423 89.6917 19.7209C89.8558 20.09 89.9086 20.5305 89.9113 21.5535C89.9148 22.8385 89.8966 22.9358 89.5207 23.666C89.0307 24.6181 89.0283 24.9229 89.5056 25.6796C90.0414 26.5292 91.0642 27.7988 91.2125 27.7988C91.2807 27.7983 91.1464 27.587 90.9136 27.3289C90.2727 26.6181 90.1706 26.1667 90.2588 24.4253C90.3005 23.5993 90.3685 22.869 90.4096 22.8022C90.5369 22.596 90.898 23.0305 91.2611 23.8269C91.5714 24.5074 91.6026 24.6966 91.5852 25.7947C91.5745 26.4627 91.5488 27.2796 91.5282 27.61C91.491 28.2081 91.4937 28.2129 92.1752 28.7643C92.9876 29.4217 94.358 30.2538 94.4542 30.1482C94.4915 30.1071 94.456 30.05 94.3759 30.0214C93.9554 29.8703 93.3989 29.3715 93.1529 28.9252C92.7866 28.2604 92.2723 25.7338 92.5031 25.7338C92.7844 25.7344 93.7843 26.8113 94.1245 27.4803C94.4317 28.0845 94.5129 28.4125 94.5581 29.2302C94.6229 30.4079 94.5714 30.358 96.2191 30.8371C96.8193 31.0115 97.2943 31.2059 97.2745 31.2684C97.2275 31.4171 96.757 31.3503 95.8565 31.0673C94.8279 30.7442 94.5268 30.7665 94.2284 31.1863C93.7715 31.829 92.4811 32.1592 91.3449 31.9243C90.6572 31.7821 89.733 31.3903 89.733 31.241C89.7335 31.1059 90.1439 30.8288 90.8845 30.4644C91.8655 29.9819 92.9735 29.9628 93.8591 30.4125C94.6745 30.8264 94.6221 30.703 93.777 30.2186C93.4008 30.0028 92.7481 29.5612 92.3266 29.2375C91.9051 28.9138 91.4794 28.6492 91.3807 28.6492C91.2819 28.6493 91.0057 28.7648 90.7667 28.9062C90.1971 29.2429 89.2063 29.1817 88.2726 28.752C87.5429 28.4161 86.702 27.7447 86.702 27.4982C86.702 27.2885 87.7177 27.0179 88.467 27.0278C89.3361 27.0391 89.8998 27.2587 90.6678 27.8854L91.3365 28.4313L90.6733 27.6479C90.3085 27.2171 89.7864 26.5349 89.5135 26.1322C88.9491 25.2995 88.8115 25.216 88.2614 25.374C87.222 25.6727 85.699 24.5814 85.0091 23.0436L84.7717 22.5145L85.2158 22.4754C86.3202 22.3779 87.5281 23.1098 88.301 24.3448C88.5701 24.7747 88.8123 25.1265 88.8391 25.1265C88.8649 25.1244 88.7294 24.8109 88.5374 24.4281C88.3446 24.0439 87.9831 23.1826 87.7345 22.5145C87.1458 20.933 87.1112 20.8747 86.7523 20.8746C86.3058 20.8746 85.835 20.5932 85.3125 20.0137C84.7807 19.424 84.0804 17.9866 83.961 17.2391L83.8794 16.7273L84.3415 16.9206C85.4836 17.3987 86.5307 18.658 86.897 19.9941C87.0114 20.4115 87.1229 20.7357 87.1445 20.7149C87.166 20.6934 87.1023 20.2511 87.0032 19.7321C86.9041 19.2132 86.8233 18.4362 86.8233 18.0056C86.8233 17.1557 86.5733 16.3803 86.2997 16.3803C85.7467 16.38 85.1084 15.4077 84.7448 14.0114C84.5159 13.132 84.4401 11.643 84.6242 11.643C84.8557 11.6433 85.8898 12.9083 86.1913 13.56C86.433 14.0824 86.5302 14.5256 86.5824 15.3478C86.6649 16.6445 86.7696 16.3835 86.8992 14.5584C87.039 12.5886 87.0324 12.5354 86.6076 12.0956C85.9774 11.4432 85.8523 10.9774 85.8584 9.30813C85.8619 8.36598 85.9222 7.68225 86.0215 7.45208L86.1785 7.0878L86.5662 7.69512C87.2898 8.82844 87.4582 10.1303 87.1317 12.0682C87.0788 12.3818 87.0889 12.3734 87.2049 12.0073C87.2788 11.7734 87.5237 11.017 87.7485 10.3267C87.973 9.63678 88.1567 8.96996 88.1569 8.8444C88.1569 8.71941 88.0202 8.41556 87.8535 8.16947C87.5538 7.72682 87.4953 7.37415 87.5418 6.29778C87.5846 5.30442 88.1556 3.3824 88.4078 3.3824C88.459 3.38307 88.6003 3.64264 88.7223 3.95956C89.0459 4.79976 89.0237 6.74399 88.681 7.57332C88.2211 8.68599 88.2472 8.6745 88.9503 7.45208C90.2715 5.15451 90.2883 5.11369 90.0565 4.72053C89.9199 4.48888 89.8543 4.10352 89.8543 3.53214C89.8543 2.80977 89.9155 2.56484 90.2739 1.85041C90.5046 1.39051 90.8687 0.801679 91.0834 0.542456ZM173.668 0.459207C173.869 0.65205 174.234 1.21683 174.48 1.71408C174.877 2.51804 174.926 2.71978 174.923 3.53605C174.922 4.05765 174.846 4.61989 174.749 4.83841C174.583 5.2114 174.596 5.25296 175.193 6.2352C175.532 6.79203 175.952 7.53495 176.127 7.88564C176.303 8.23626 176.466 8.52314 176.491 8.52314C176.514 8.52186 176.4 8.18833 176.235 7.78061C175.732 6.53274 175.736 4.8105 176.245 3.60477L176.398 3.24161L176.601 3.55169C176.929 4.05334 177.314 5.71707 177.333 6.71123C177.347 7.52768 177.312 7.68989 177.017 8.13595C176.618 8.74026 176.611 8.87613 176.938 9.73778C177.078 10.1052 177.324 10.8706 177.485 11.4385C177.646 12.0063 177.736 12.2251 177.686 11.9246C177.635 11.6239 177.594 10.8311 177.596 10.163C177.598 9.06837 177.633 8.87935 177.948 8.2516C178.141 7.8684 178.395 7.46695 178.514 7.35933C178.717 7.17568 178.739 7.19568 178.877 7.69121C179.067 8.37012 179.063 10.3688 178.87 11.0714C178.777 11.411 178.557 11.7699 178.284 12.028C177.79 12.4946 177.801 12.4031 177.958 14.8137C178.012 15.6346 178.095 16.3308 178.144 16.3608C178.192 16.3899 178.255 15.9101 178.285 15.2936C178.33 14.3281 178.392 14.0643 178.73 13.4024C178.946 12.9793 179.379 12.3783 179.692 12.0665L180.261 11.4994L180.297 12.3246C180.356 13.6821 179.759 15.549 179.084 16.1183C178.887 16.2837 178.651 16.4189 178.558 16.4189C178.27 16.419 178.163 16.8042 178.019 18.3671C177.942 19.1998 177.83 20.0677 177.771 20.2958C177.613 20.9026 177.828 20.5848 178.011 19.9416C178.362 18.7056 179.099 17.7323 180.134 17.1374C180.47 16.9441 180.787 16.7851 180.837 16.7843C181.015 16.7821 180.923 17.3898 180.621 18.2068C180.098 19.6181 179.025 20.792 178.257 20.792C177.817 20.792 177.754 20.8857 177.197 22.3709C176.934 23.0723 176.571 23.9388 176.391 24.2962C175.957 25.1532 176.068 25.2353 176.536 24.404C177.176 23.2691 178.2 22.5589 179.403 22.4173C180.149 22.3294 180.173 22.3583 179.903 23.0056C179.619 23.6866 178.794 24.6403 178.172 25.0069C177.687 25.292 177.456 25.3471 176.747 25.3472H175.9L175.34 26.1629C175.032 26.6116 174.513 27.2944 174.186 27.6803L173.593 28.3821L174.202 27.8714C174.536 27.5905 175.048 27.2763 175.338 27.1736C176.174 26.8779 177.538 26.9621 178.137 27.3462C178.419 27.5273 177.752 28.1399 176.713 28.6547C175.603 29.2047 174.616 29.2719 174.031 28.838C173.829 28.6885 173.605 28.5665 173.534 28.5665C173.462 28.567 173.01 28.8677 172.529 29.2353C172.047 29.6031 171.37 30.0526 171.024 30.2342C170.678 30.4157 170.413 30.5832 170.436 30.6063C170.459 30.6293 170.705 30.532 170.982 30.3901C171.639 30.0544 172.523 29.9552 173.252 30.1359C173.947 30.3082 175.108 30.98 175.108 31.2103C175.108 31.6398 173.036 32.1464 172.04 31.9601C171.315 31.8244 171.09 31.7016 170.689 31.2237C170.301 30.762 170.043 30.7454 168.864 31.1064C168.398 31.2493 167.88 31.3487 167.713 31.3276L167.409 31.2885L167.713 31.16C167.88 31.089 168.507 30.8728 169.107 30.6795L170.198 30.3275L170.27 29.2744C170.324 28.4836 170.422 28.0561 170.665 27.5585C171.099 26.6706 172.441 25.4094 172.441 25.8897C172.441 25.9545 172.333 26.5612 172.202 27.2384C171.909 28.7572 171.52 29.4846 170.852 29.7655C170.426 29.9447 170.229 30.1453 170.479 30.1454C170.645 30.1454 172.038 29.2646 172.687 28.7486C173.395 28.1865 173.497 27.9105 173.306 27.0831C173.113 26.2431 173.134 25.2041 173.361 24.4281C173.595 23.6234 174.247 22.5537 174.406 22.7123C174.468 22.774 174.55 23.5318 174.588 24.3962C174.669 26.222 174.576 26.6293 173.932 27.2747C173.69 27.5174 173.524 27.7485 173.564 27.7882C173.604 27.8276 173.805 27.6774 174.011 27.4541C174.462 26.9653 175.836 24.9557 175.836 24.7851C175.836 24.7183 175.64 24.2615 175.401 23.7699C174.851 22.6402 174.725 21.4044 175.037 20.1857C175.148 19.7521 175.285 19.3516 175.341 19.2957C175.453 19.1828 176.14 20.9899 176.341 21.9278C176.5 22.6738 176.397 23.4977 176.073 24.0476C175.937 24.278 175.855 24.4958 175.89 24.5314C176.001 24.6411 176.768 22.8501 177.095 21.7194C177.447 20.4998 177.432 20.4287 176.676 19.6382C175.965 18.895 175.557 17.8847 175.495 16.7184C175.415 15.1838 175.444 15.1617 176.19 16.1854C177.097 17.4297 177.43 18.1164 177.522 18.9365L177.602 19.6382L177.69 19.0342C177.887 17.6904 177.928 16.4628 177.787 16.1988C177.709 16.0531 177.436 15.8264 177.18 15.6954C176.143 15.165 175.289 13.7407 175.138 12.2889L175.069 11.6207L175.907 12.3498C176.368 12.7506 176.843 13.1878 176.964 13.3214C177.369 13.7706 177.649 14.5217 177.652 15.1668C177.653 15.5136 177.709 15.8312 177.776 15.8725C177.923 15.9637 177.923 15.9203 177.772 14.4751C177.514 11.9923 177.282 11.4386 176.503 11.4385C176.048 11.4385 175.173 10.9057 174.693 10.3356C174.319 9.8927 173.721 8.65785 173.828 8.54996C173.916 8.46165 175.428 9.10848 175.987 9.47351C176.523 9.82371 176.874 10.3508 176.991 10.9843C177.038 11.2356 177.133 11.477 177.203 11.5206C177.278 11.5668 177.306 11.5279 177.271 11.4279C177.237 11.333 177.06 10.7914 176.878 10.2239C176.696 9.65598 176.4 8.89059 176.221 8.52314L175.896 7.85492L175.047 7.84933C174.398 7.84483 174.06 7.7734 173.607 7.5465C173.067 7.27535 172.08 6.30656 172.078 6.0458C172.079 5.98584 172.509 5.96701 173.046 6.00389C174.463 6.10121 175.338 6.58926 175.488 7.36436C175.512 7.48958 175.605 7.61644 175.693 7.64596C176.03 7.75799 174.424 5.05668 174.072 4.9211C173.97 4.88162 173.596 4.94001 173.243 5.05128C172.48 5.29176 171.891 5.19886 171.053 4.70656C170.546 4.40895 170.162 3.96352 170.296 3.82882C170.329 3.79733 170.84 3.74044 171.432 3.70199C172.655 3.62254 173.087 3.76369 173.553 4.39535C173.7 4.59434 173.874 4.75719 173.939 4.7574C174.005 4.7574 173.954 4.63119 173.826 4.47693C173.698 4.32265 173.797 4.41867 174.047 4.6898C174.588 5.27675 174.643 5.13582 174.136 4.46407C173.939 4.20251 173.665 3.68872 173.528 3.32206C173.258 2.59841 173.084 0.981262 173.218 0.443563L173.303 0.108334L173.668 0.459207ZM125.667 22.7218C126.788 22.7218 127.605 23.5067 127.605 24.8203C127.605 26.0856 126.788 26.9188 125.667 26.9188C125.034 26.9188 124.593 26.6621 124.337 26.2936V28.4726H123.472V22.7698H124.225L124.329 23.3782C124.601 23.0179 125.026 22.7218 125.667 22.7218ZM130.493 22.7218C131.614 22.7218 132.431 23.5067 132.431 24.8203C132.431 26.0856 131.614 26.9188 130.493 26.9188C129.86 26.9188 129.419 26.6621 129.163 26.2936V28.4726H128.298V22.7698H129.051L129.155 23.3782C129.428 23.0179 129.852 22.7218 130.493 22.7218ZM134.687 22.7218C135.696 22.7218 136.409 23.186 136.465 24.0269H135.616C135.567 23.6506 135.215 23.3866 134.703 23.3866C134.19 23.3866 133.854 23.5946 133.853 23.923C133.853 24.3075 134.246 24.3556 134.839 24.4197C135.776 24.5318 136.537 24.7241 136.537 25.6371C136.537 26.4221 135.792 26.9188 134.799 26.9188C133.702 26.9188 132.948 26.4061 132.924 25.517H133.774C133.806 25.9415 134.174 26.2461 134.799 26.2461C135.335 26.2461 135.688 26.0376 135.688 25.7092C135.688 25.2687 135.311 25.2367 134.679 25.1566C133.742 25.0445 133.005 24.8441 133.005 23.9951C133.005 23.2182 133.701 22.7138 134.687 22.7218ZM122.985 26.8708H122L121.471 25.4852H119.173L118.652 26.8708H117.699L119.797 21.2641H120.895L122.985 26.8708ZM125.523 23.4581C124.802 23.4581 124.329 24.0111 124.329 24.8041C124.329 25.621 124.802 26.1897 125.523 26.1897C126.243 26.1896 126.724 25.6211 126.724 24.8203C126.724 24.0114 126.243 23.4582 125.523 23.4581ZM130.349 23.4581C129.628 23.4581 129.155 24.0111 129.155 24.8041C129.155 25.621 129.628 26.1897 130.349 26.1897C131.069 26.1896 131.55 25.6211 131.55 24.8203C131.55 24.0114 131.069 23.4582 130.349 23.4581ZM119.429 24.7002H121.215L120.318 22.2569L119.429 24.7002ZM107.728 19.6622L100.499 23.747L100.474 23.7587C100.199 23.9215 99.886 24.0095 99.5479 24.0096C98.8809 24.0096 98.2937 23.6532 97.9735 23.1235L104.615 16.6195L107.728 19.6622ZM103.989 16.006L97.7198 22.1457V9.87411L103.989 16.006ZM129.241 14.712C130.363 14.7121 131.179 15.497 131.179 16.8106C131.179 18.0759 130.363 18.909 129.241 18.9091C128.609 18.9091 128.168 18.6523 127.912 18.2839V20.4629H127.047V14.7601H127.799L127.904 15.3685C128.176 15.0081 128.601 14.712 129.241 14.712ZM87.4295 19.7209C87.3365 19.504 87.3242 19.5128 87.3166 19.8047C87.312 19.9845 87.3628 20.1651 87.4295 20.2064C87.4961 20.2477 87.5464 20.2101 87.5418 20.1226C87.537 20.0351 87.4867 19.8544 87.4295 19.7209ZM111.424 14.4522C111.988 14.7529 112.376 15.3419 112.376 16.0183C112.376 16.6945 111.987 17.2955 111.411 17.5961L108.531 19.2225L105.242 16.0054L108.516 12.7995L111.424 14.4522ZM136.416 14.712C137.665 14.712 138.506 15.561 138.506 16.8106C138.506 18.0679 137.665 18.9091 136.416 18.9091C135.166 18.9091 134.325 18.0679 134.325 16.8106C134.325 15.561 135.166 14.712 136.416 14.712ZM144.807 14.712C145.992 14.712 146.785 15.4645 146.809 16.6658C146.809 16.7699 146.801 16.8823 146.785 16.9944H143.694V17.0508C143.718 17.7475 144.158 18.2039 144.839 18.204C145.368 18.204 145.752 17.9397 145.873 17.4832H146.737C146.593 18.2922 145.904 18.9091 144.887 18.9091C143.598 18.909 142.788 18.0758 142.788 16.8184C142.788 15.5528 143.598 14.712 144.807 14.712ZM156.384 14.712C157.569 14.712 158.362 15.4645 158.386 16.6658C158.386 16.7699 158.378 16.8823 158.362 16.9944H155.27V17.0508C155.294 17.7475 155.735 18.2039 156.415 18.204C156.944 18.204 157.329 17.9397 157.449 17.4832H158.314C158.17 18.2922 157.481 18.9091 156.463 18.9091C155.174 18.909 154.365 18.0758 154.365 16.8184C154.365 15.5528 155.174 14.712 156.384 14.712ZM119.068 18.861H118.147V13.2543H119.068V18.861ZM124.725 14.712C125.574 14.7121 126.262 15.2004 126.262 16.4977V18.861H125.397V16.5541C125.397 15.8332 125.101 15.4568 124.54 15.4568C123.948 15.4568 123.571 15.9051 123.571 16.6418V18.861H122.698V16.5541C122.698 15.8332 122.401 15.4568 121.833 15.4568C121.24 15.4569 120.872 15.9372 120.872 16.6658V18.861H120.007V14.7601H120.759L120.856 15.2964C121.088 14.9921 121.441 14.72 122.057 14.712C122.594 14.7121 123.075 14.9282 123.323 15.4568C123.587 15.0082 124.052 14.712 124.725 14.712ZM132.738 15.3763C132.946 15.032 133.275 14.7601 133.947 14.7601H134.14V15.5685H133.755C132.986 15.5685 132.738 16.1694 132.738 16.8022V18.861H131.873V14.7601H132.642L132.738 15.3763ZM140.664 17.9319L141.778 14.7601H142.691L141.177 18.861H140.119L138.606 14.7601H139.535L140.664 17.9319ZM152.227 14.712C153.076 14.7121 153.764 15.2004 153.764 16.4977V18.861H152.899V16.5541C152.899 15.8332 152.603 15.4568 152.042 15.4568C151.45 15.4568 151.073 15.9051 151.073 16.6418V18.861H150.2V16.5541C150.2 15.8332 149.904 15.4568 149.335 15.4568C148.742 15.4569 148.374 15.9372 148.374 16.6658V18.861H147.509V14.7601H148.262L148.358 15.2964C148.59 14.9921 148.943 14.72 149.559 14.712C150.096 14.7121 150.577 14.9282 150.825 15.4568C151.089 15.0082 151.554 14.712 152.227 14.712ZM161.248 14.712C162.153 14.712 162.898 15.2085 162.898 16.5781V18.861H162.025V16.6502C162.025 15.8733 161.697 15.4568 161.048 15.4568C160.359 15.4568 159.95 15.9614 159.95 16.7944V18.861H159.086V14.7601H159.838L159.934 15.2964C160.19 14.9761 160.583 14.7121 161.248 14.712ZM164.854 14.7601H165.855V15.5205H164.854V17.6592C164.854 17.9796 164.966 18.1 165.295 18.1001H165.903V18.861H165.102C164.318 18.861 163.981 18.4923 163.981 17.7475V15.5205H163.268V14.7601H163.981V13.6147H164.854V14.7601ZM129.097 15.4484C128.376 15.4484 127.904 16.0014 127.904 16.7944C127.904 17.6113 128.376 18.18 129.097 18.18C129.818 18.1799 130.298 17.6113 130.298 16.8106C130.298 16.0016 129.818 15.4485 129.097 15.4484ZM136.416 15.4484C135.687 15.4484 135.215 16.0176 135.215 16.8106C135.215 17.6034 135.687 18.1721 136.416 18.1721C137.145 18.1721 137.625 17.6034 137.625 16.8106C137.625 16.0176 137.145 15.4484 136.416 15.4484ZM144.815 15.4087C144.262 15.4088 143.79 15.7773 143.726 16.3619H145.912C145.84 15.7532 145.416 15.4087 144.815 15.4087ZM156.391 15.4087C155.839 15.4088 155.367 15.7773 155.302 16.3619H157.489C157.417 15.7532 156.992 15.4087 156.391 15.4087ZM99.5479 7.99068C99.8985 7.99074 100.224 8.07879 100.499 8.24155L107.722 12.3509L104.615 15.392L97.9623 8.88519C98.2754 8.35079 98.8675 7.99071 99.5479 7.99068ZM90.984 8.48626C91.2727 8.48286 90.5547 9.87774 89.9325 10.5289C89.3376 11.1516 89.0049 11.3408 88.3005 11.4581L87.7775 11.5452L87.8619 11.0776C88.0494 10.0416 88.5607 9.50407 89.9258 8.90697C90.4531 8.6763 90.9296 8.48711 90.984 8.48626ZM124.947 6.70229C126.132 6.70229 126.925 7.45481 126.949 8.65611C126.949 8.7602 126.941 8.87255 126.925 8.98464H123.834V9.04107C123.858 9.73772 124.298 10.1942 124.979 10.1943C125.507 10.1943 125.892 9.93001 126.013 9.47351H126.877C126.733 10.2824 126.044 10.8994 125.027 10.8994C123.738 10.8993 122.928 10.0661 122.928 8.80864C122.928 7.54311 123.738 6.7023 124.947 6.70229ZM129.211 6.70229C130.22 6.70229 130.933 7.16657 130.99 8.00744H130.14C130.092 7.63113 129.74 7.36716 129.227 7.36716C128.715 7.36716 128.378 7.57515 128.378 7.90352C128.378 8.28799 128.771 8.33614 129.364 8.40022C130.301 8.51236 131.062 8.70461 131.062 9.61766C131.062 10.4026 130.317 10.8994 129.323 10.8994C128.226 10.8994 127.473 10.3866 127.449 9.49754H128.298C128.33 9.92203 128.699 10.2267 129.323 10.2267C129.86 10.2267 130.212 10.0181 130.212 9.68973C130.212 9.24921 129.836 9.21726 129.203 9.13717C128.266 9.02503 127.529 8.82463 127.529 7.9756C127.529 7.19873 128.226 6.69433 129.211 6.70229ZM138.545 5.19655C139.826 5.19665 140.627 5.89317 140.668 6.92633H139.746C139.674 6.35774 139.226 5.97327 138.545 5.97316C137.912 5.97316 137.471 6.24572 137.471 6.77436C137.471 7.35091 138.048 7.47088 138.929 7.62305C139.858 7.79125 140.763 8.08783 140.755 9.19304C140.755 10.2023 139.914 10.8994 138.681 10.8994C137.287 10.8993 136.446 10.13 136.414 9.00866L137.343 9.02486C137.391 9.68166 137.904 10.1222 138.689 10.1222C139.354 10.1221 139.835 9.82572 139.835 9.28913C139.834 8.69653 139.25 8.56822 138.361 8.40804C137.431 8.24785 136.55 7.95141 136.55 6.83805C136.551 5.86098 137.352 5.19655 138.545 5.19655ZM143.344 6.70229C144.53 6.70229 145.323 7.45481 145.347 8.65611C145.347 8.7602 145.339 8.87255 145.323 8.98464H142.231V9.04107C142.255 9.73772 142.696 10.1942 143.376 10.1943C143.905 10.1943 144.29 9.93001 144.41 9.47351H145.275C145.13 10.2824 144.441 10.8994 143.424 10.8994C142.135 10.8993 141.326 10.0661 141.326 8.80864C141.326 7.54311 142.135 6.7023 143.344 6.70229ZM120.206 5.2446C121.439 5.24462 122.144 5.80521 122.144 6.72631C122.144 7.39097 121.768 7.79138 121.183 7.95157C121.848 8.05572 122.36 8.44852 122.36 9.24947C122.36 10.2425 121.631 10.8513 120.278 10.8513H118.147V5.2446H120.206ZM132.901 6.75034H133.903V7.51075H132.901V9.64951C132.901 9.96983 133.013 10.0903 133.342 10.0903H133.951V10.8513H133.15C132.365 10.8512 132.028 10.4826 132.028 9.73778V7.51075H131.315V6.75034H132.028V5.60497H132.901V6.75034ZM146.911 10.8513H146.046V5.2446H146.911V10.8513ZM150.026 6.00501H149.313C149.033 6.00502 148.913 6.12536 148.912 6.40561V6.75034H150.026V7.51131H148.929V10.8513H148.055V7.51131H147.342V6.75034H148.055V6.36594C148.055 5.6291 148.408 5.24466 149.201 5.2446H150.026V6.00501ZM119.068 10.0741H120.286C121.023 10.0741 121.415 9.76172 121.415 9.24109C121.415 8.68847 120.999 8.38402 120.286 8.38402H119.068V10.0741ZM152.937 8.92877H150.214V8.21585H152.937V8.92877ZM124.955 7.399C124.402 7.3991 123.93 7.76754 123.866 8.35217H126.052C125.98 7.74343 125.556 7.399 124.955 7.399ZM143.352 7.399C142.8 7.3991 142.327 7.76754 142.263 8.35217H144.449C144.377 7.74343 143.953 7.399 143.352 7.399ZM119.068 7.62305H120.23C120.863 7.62302 121.223 7.31862 121.223 6.81403C121.223 6.31756 120.87 6.01342 120.23 6.01339H119.068V7.62305ZM91.5064 3.99028C91.4367 3.99036 90.9454 4.55568 90.9454 4.6356C90.9455 4.83303 91.143 4.68929 91.3337 4.35345C91.4473 4.1535 91.5249 3.99028 91.5064 3.99028ZM169.167 0.0938077C169.168 -0.0459721 169.283 -0.0336577 169.789 0.158619C171.285 0.728303 171.977 1.32077 172.13 2.16217C172.192 2.50263 172.405 2.8315 172.904 3.3567L173.593 4.08136L172.844 3.38687C172.386 2.96232 171.985 2.69118 171.813 2.6896C171.354 2.68508 170.594 2.27713 170.108 1.77498C169.662 1.31265 169.167 0.429316 169.167 0.0938077ZM94.662 0.290475C95.4641 -0.0347726 95.6736 -0.0729502 95.6738 0.106658C95.6738 0.3213 95.0965 1.38563 94.7682 1.77666C94.4139 2.19841 93.5605 2.65301 93.1194 2.65496C92.9405 2.65589 92.5979 2.86614 92.2489 3.18853C91.9322 3.48119 91.673 3.67846 91.6729 3.62712C91.6729 3.57562 91.8911 3.34172 92.1578 3.10752C92.4245 2.87321 92.6441 2.57943 92.6456 2.45494C92.6508 2.02383 93.1032 1.22749 93.5273 0.903385C93.7615 0.724334 94.2722 0.448512 94.662 0.290475Z" fill="#0C0A09"/>
</g>
</svg>
