<svg preserveAspectRatio="none" width="100%" height="100%" overflow="visible" style="display: block;" viewBox="0 0 20 20" fill="none" xmlns="http://www.w3.org/2000/svg">
<g id="felix-icon">
<path id="Vector" d="M17.4242 9.36259H10.7224L17.0026 7.67364L16.6684 6.432L10.3033 8.14151L15.4884 5.10295L14.8381 3.99498L9.48844 7.12866L13.126 3.32146L12.1954 2.432L8.33677 6.47056L10.2828 2.57596L9.13368 2.00012L6.96402 6.33688L7.39332 2.95642L6.11826 2.79447L5.60155 6.8613L4.87147 4.36516L3.63754 4.72506L4.59641 7.99755L3.01286 6.56825L2.15168 7.52197L4.02314 9.21349C4.01029 9.25976 3.99744 9.30603 3.98715 9.35488H2.00001V10.6402H3.9923C4.00258 10.6891 4.01543 10.7353 4.02829 10.7816L2.15682 12.4731L3.018 13.4269L4.60155 11.9976L3.64268 15.27L4.87661 15.6325L5.60669 13.1389L6.1234 17.2058L7.39847 17.0438L6.96916 13.6634L9.13883 18.0001L10.2879 17.4243L8.34191 13.5297L12.2005 17.5682L13.1311 16.6788L9.49358 12.8716L14.8432 16.0053L15.4936 14.8973L10.3085 11.8587L16.6735 13.5682L17.0077 12.3266L10.7275 10.6377H17.4293V9.35231L17.4242 9.36259ZM9.06942 10.0053C9.06942 11.0695 8.20566 11.9333 7.1414 11.9333C6.07713 11.9333 5.21338 11.0695 5.21338 10.0053C5.21338 8.941 6.07713 8.07724 7.1414 8.07724C8.20566 8.07724 9.06942 8.941 9.06942 10.0053Z" fill="var(--fill-0, #0C0A09)"/>
</g>
</svg>
